<svg width="40" height="40" viewBox="0 0 40 40" fill="none" xmlns="http://www.w3.org/2000/svg">
<path d="M19.6607 1.23047C12.4734 1.23047 6.62589 7.07794 6.62589 14.2653C6.62589 23.299 19.6735 38.7305 19.6735 38.7305C19.6735 38.7305 32.6955 22.8548 32.6955 14.2653C32.6955 7.07794 26.8483 1.23047 19.6607 1.23047ZM23.5936 18.0819C22.5091 19.1661 21.085 19.7083 19.6607 19.7083C18.2366 19.7083 16.812 19.1661 15.7281 18.0819C13.5594 15.9135 13.5594 12.385 15.7281 10.2164C16.7782 9.1658 18.175 8.58719 19.6607 8.58719C21.1464 8.58719 22.543 9.16603 23.5936 10.2164C25.7622 12.385 25.7622 15.9135 23.5936 18.0819Z" fill="#FBF3F0"/>
</svg>
